<?xml version="1.0" encoding="UTF-8" standalone="no"?>
<svg width="256" height="256" viewBox="0 0 256 256" version="1.1" id="svg6" sodipodi:docname="therian.svg" inkscape:version="1.2.1 (9c6d41e410, 2022-07-14, custom)" inkscape:export-filename="therian.png" inkscape:export-xdpi="96" inkscape:export-ydpi="96" xmlns:inkscape="http://www.inkscape.org/namespaces/inkscape" xmlns:sodipodi="http://sodipodi.sourceforge.net/DTD/sodipodi-0.dtd" xmlns="http://www.w3.org/2000/svg" xmlns:svg="http://www.w3.org/2000/svg" xmlns:rdf="http://www.w3.org/1999/02/22-rdf-syntax-ns#" xmlns:cc="http://creativecommons.org/ns#">
  <defs id="defs10">
    <clipPath clipPathUnits="userSpaceOnUse" id="clipPath860">
      <g id="g864">
        <path id="path862" style="fill:#95c7ec;fill-opacity:1;stroke:none;stroke-width:15.1461;stroke-linecap:round;stroke-linejoin:miter;stroke-miterlimit:4;stroke-dasharray:none;stroke-opacity:1" d="m 256,52 0.43085,203.99999 H 52 M 2.4600804e-7,256 V 1.7744748e-7 H 256" sodipodi:nodetypes="cccccc"/>
      </g>
    </clipPath>
    <clipPath clipPathUnits="userSpaceOnUse" id="clipPath866">
      <g id="g870">
        <path id="path868" style="fill:#95c7ec;fill-opacity:1;stroke:none;stroke-width:15.1461;stroke-linecap:round;stroke-linejoin:miter;stroke-miterlimit:4;stroke-dasharray:none;stroke-opacity:1" d="m 256,52 0.43085,203.99999 H 52 M 2.4600804e-7,256 V 1.7744748e-7 H 256" sodipodi:nodetypes="cccccc"/>
      </g>
    </clipPath>
    <clipPath clipPathUnits="userSpaceOnUse" id="clipPath872">
      <g id="g876">
        <path id="path874" style="fill:#95c7ec;fill-opacity:1;stroke:none;stroke-width:15.1461;stroke-linecap:round;stroke-linejoin:miter;stroke-miterlimit:4;stroke-dasharray:none;stroke-opacity:1" d="m 256,52 0.43085,203.99999 H 52 M 2.4600804e-7,256 V 1.7744748e-7 H 256" sodipodi:nodetypes="cccccc"/>
      </g>
    </clipPath>
    <clipPath clipPathUnits="userSpaceOnUse" id="clipPath878">
      <g id="g882">
        <path id="path880" style="fill:#95c7ec;fill-opacity:1;stroke:none;stroke-width:15.1461;stroke-linecap:round;stroke-linejoin:miter;stroke-miterlimit:4;stroke-dasharray:none;stroke-opacity:1" d="m 256,52 0.43085,203.99999 H 52 M 2.4600804e-7,256 V 1.7744748e-7 H 256" sodipodi:nodetypes="cccccc"/>
      </g>
    </clipPath>
    <clipPath clipPathUnits="userSpaceOnUse" id="clipPath2111">
      <path id="path2113" style="fill:#ff0000;stroke-width:16;stroke-linecap:round;stroke-linejoin:round;paint-order:markers fill stroke;stop-color:#000000" d="m 23.67082,208.13101 40.430413,-67.50844 63.511077,78.05594 h 105.22607 v 48.04417 H 23.67082 Z" sodipodi:nodetypes="ccccccc"/>
    </clipPath>
    <clipPath clipPathUnits="userSpaceOnUse" id="clipPath2118">
      <path id="path2120" style="fill:#ff0000;stroke-width:16;stroke-linecap:round;stroke-linejoin:round;paint-order:markers fill stroke;stop-color:#000000" d="M 115.96697,6.5446446 158.97492,81.864206 60.399103,101.33943 15.95161,178.32474 -12.882974,177.68045 -12.50467,7.5044957 Z" sodipodi:nodetypes="ccccccc"/>
    </clipPath>
    <clipPath clipPathUnits="userSpaceOnUse" id="clipPath2156">
      <path id="path2158" style="fill:#ff0000;stroke-width:16;stroke-linecap:round;stroke-linejoin:round;paint-order:markers fill stroke;stop-color:#000000" d="m 151.75191,24.080303 123.23944,-0.196369 -25.70719,169.127176 -81.95448,-0.0723 28.83163,-91.93917 z" sodipodi:nodetypes="cccccc"/>
    </clipPath>
    <clipPath clipPathUnits="userSpaceOnUse" id="clipPath2375">
      <path id="path2377" style="display:inline;fill:#ff0000;stroke-width:58;stroke-linecap:round;stroke-linejoin:round;paint-order:markers fill stroke;stop-color:#000000" inkscape:label="path1009-7" d="m 191.65051,140.76291 c 0,34.9482 -28.33412,63.27932 -63.28602,63.27932 -34.951904,0 -63.286022,-28.33112 -63.286022,-63.27932 L 66.182335,4.5692461 186.5482,7.7067733 183.3717,109.44999 c 5.26853,9.23333 8.27881,19.92162 8.27881,31.31292 z" sodipodi:nodetypes="ssccccs"/>
    </clipPath>
    <clipPath clipPathUnits="userSpaceOnUse" id="clipPath2380">
      <path id="path2382" style="display:inline;fill:#ff0000;stroke-width:58;stroke-linecap:round;stroke-linejoin:round;paint-order:markers fill stroke;stop-color:#000000" inkscape:label="path1009-7" d="m 191.65051,140.76291 83.14822,35.7914 -32.32904,83.60663 -114.1052,-56.11871 c -34.951904,0 -63.286022,-28.33112 -63.286022,-63.27932 -10e-7,-34.94821 28.334117,-63.279323 63.286022,-63.279321 34.9519,-10e-7 63.28602,28.331121 63.28602,63.279321 z" sodipodi:nodetypes="ccccssc"/>
    </clipPath>
    <clipPath clipPathUnits="userSpaceOnUse" id="clipPath2423">
      <path id="path2425" style="display:inline;fill:#ff0000;stroke-width:58;stroke-linecap:round;stroke-linejoin:round;paint-order:markers fill stroke;stop-color:#000000" inkscape:label="path1009-7" d="m 191.76143,140.76291 c 0,35.00946 -28.38378,63.39023 -63.39694,63.39023 l -8.61811,16.3301 -125.0220555,21.87043 6.7955509,-125.84064 72.1038676,-7.7455 c 11.00373,-18.781674 31.399097,-31.39485 54.740747,-31.394849 35.01316,2e-6 63.39694,28.380769 63.39694,63.390229 z" sodipodi:nodetypes="scccccss"/>
    </clipPath>
  </defs>
  <sodipodi:namedview id="namedview8" pagecolor="#505050" bordercolor="#eeeeee" borderopacity="1" inkscape:pageshadow="0" inkscape:pageopacity="0" inkscape:pagecheckerboard="0" inkscape:document-units="px" showgrid="false" units="in" fit-margin-top="10" fit-margin-left="10" fit-margin-right="10" fit-margin-bottom="10" lock-margins="true" inkscape:zoom="1.8400765" inkscape:cx="31.248701" inkscape:cy="145.91785" inkscape:current-layer="layer1" inkscape:showpageshadow="0" inkscape:deskcolor="#505050" showguides="true"/>
  <g inkscape:groupmode="layer" id="layer1" inkscape:label="Layer 1">
    <path sodipodi:type="star" style="display:inline;fill:#000000;fill-opacity:1;stroke:#000000;stroke-width:50.8757;stroke-linecap:round;stroke-linejoin:round;stroke-dasharray:none;stroke-opacity:1;paint-order:markers fill stroke;stop-color:#000000" id="path399-6" inkscape:flatsided="true" sodipodi:sides="3" sodipodi:cx="126.80986" sodipodi:cy="120.58984" sodipodi:r1="111.7112" sodipodi:r2="55.855602" sodipodi:arg1="0.52359878" sodipodi:arg2="1.5707963" inkscape:rounded="0" inkscape:randomized="0" d="m 223.55459,176.44544 -193.489464,0 L 126.80986,8.8786469 Z" inkscape:transform-center-y="-28.545578" transform="matrix(1.0220793,0,0,1.0221204,-1.2643326,17.790116)" inkscape:label="Triangle Outline"/>
    <ellipse style="display:inline;fill:#000000;fill-opacity:1;stroke:#000000;stroke-width:52;stroke-linecap:round;stroke-linejoin:round;stroke-dasharray:none;stroke-opacity:1;paint-order:markers fill stroke;stop-color:#000000" id="path1009-7" cx="128.34538" cy="141.24911" rx="88.606285" ry="88.585114" inkscape:label="Circle Outline"/>
    <path id="ellipse1767" style="display:inline;fill:none;stroke:#ffffff;stroke-width:15.5979;stroke-linecap:round;stroke-linejoin:round;paint-order:markers fill stroke;stop-color:#000000" d="m 194.35668,196.05434 c -15.84399,18.74066 -39.52821,30.64096 -65.99219,30.64096 -37.733834,0 -69.816238,-24.19409 -81.57763,-57.91425" inkscape:label="Circle B" sodipodi:nodetypes="csc" clip-path="url(#clipPath2111)" transform="matrix(1.0258461,0,0,1.0257097,-3.3368244,-2.6893182)"/>
    <path id="path1811" style="display:inline;fill:none;stroke:#ffffff;stroke-width:15.5979;stroke-linecap:round;stroke-linejoin:round;paint-order:markers fill stroke;stop-color:#000000" d="m 47.198861,169.93564 c -3.36974,-9.23419 -5.208229,-19.20493 -5.20823,-29.60504 -4e-6,-47.697913 38.670893,-86.364714 86.373859,-86.364711 4.58194,0 9.08055,0.356736 13.46957,1.043945" inkscape:label="Circle TL" sodipodi:nodetypes="cssc" clip-path="url(#clipPath2118)" transform="matrix(1.0258461,0,0,1.0257097,-3.3368244,-2.6893182)"/>
    <path id="path1813" style="display:inline;fill:none;stroke:#ffffff;stroke-width:15.5979;stroke-linecap:round;stroke-linejoin:round;paint-order:markers fill stroke;stop-color:#000000" d="m 140.7154,54.84219 c 41.85218,5.991748 74.02294,41.983536 74.02294,85.48841 0,22.06203 -8.27326,42.19194 -21.88686,57.45713" inkscape:label="Circle TR" sodipodi:nodetypes="csc" clip-path="url(#clipPath2156)" transform="matrix(1.0258461,0,0,1.0257097,-3.3368244,-2.6893182)"/>
    <path id="path2282" style="fill:none;stroke:#ffffff;stroke-width:15.5979;stroke-linecap:round;stroke-linejoin:round;stroke-dasharray:none;stroke-opacity:1;paint-order:markers fill stroke;stop-color:#000000" inkscape:transform-center-x="1.943067e-05" inkscape:transform-center-y="-28.372162" d="m 209.42812,170.66491 14.64076,25.36937 H 32.509509" sodipodi:nodetypes="ccc" inkscape:label="Triangle B" clip-path="url(#clipPath2380)" transform="matrix(1.0258461,0,0,1.0257097,-3.3368244,-2.8890848)"/>
    <path id="path1115" style="fill:none;stroke:#ffffff;stroke-width:15.5979;stroke-linecap:round;stroke-linejoin:round;stroke-dasharray:none;stroke-opacity:1;paint-order:markers fill stroke;stop-color:#000000" inkscape:transform-center-x="1.613955e-05" inkscape:transform-center-y="-28.372164" d="M 61.794734,196.03428 H 32.509509 L 113.98024,54.862659" sodipodi:nodetypes="ccc" inkscape:label="Triangle TL" clip-path="url(#clipPath2423)" transform="matrix(1.0258461,0,0,1.0257097,-3.3368244,-2.8890848)"/>
    <path id="path2280" style="fill:none;stroke:#ffffff;stroke-width:15.5979;stroke-linecap:round;stroke-linejoin:round;stroke-dasharray:none;stroke-opacity:1;paint-order:markers fill stroke;stop-color:#000000" inkscape:transform-center-x="2.1866251e-05" inkscape:transform-center-y="-28.372164" d="M 113.98024,54.862659 128.2892,30.068244 224.06888,196.03428" sodipodi:nodetypes="ccc" inkscape:label="Triangle TR" clip-path="url(#clipPath2375)" transform="matrix(1.0258461,0,0,1.0257097,-3.3368244,-2.8890848)"/>
    <path id="path1115-5" style="fill:none;stroke:#ffffff;stroke-width:16;stroke-linecap:square;stroke-linejoin:round;stroke-dasharray:none;stroke-opacity:1;paint-order:markers fill stroke;stop-color:#000000" inkscape:transform-center-x="1.625651e-05" inkscape:transform-center-y="-28.372169" d="M 145.63072,141.04935 H 111.06005" sodipodi:nodetypes="cc" inkscape:label="Dash"/>
  </g>
  <metadata id="metadata359">
    <rdf:RDF>
      <cc:Work rdf:about="">
        <cc:license rdf:resource="http://creativecommons.org/publicdomain/zero/1.0/"/>
      </cc:Work>
      <cc:License rdf:about="http://creativecommons.org/publicdomain/zero/1.0/">
        <cc:permits rdf:resource="http://creativecommons.org/ns#Reproduction"/>
        <cc:permits rdf:resource="http://creativecommons.org/ns#Distribution"/>
        <cc:permits rdf:resource="http://creativecommons.org/ns#DerivativeWorks"/>
      </cc:License>
    </rdf:RDF>
  </metadata>
</svg>